<svg xmlns="http://www.w3.org/2000/svg" xmlns:xlink="http://www.w3.org/1999/xlink" width="250" zoomAndPan="magnify" viewBox="0 0 187.5 149.999998" height="200" preserveAspectRatio="xMidYMid meet" version="1.0"><defs><g/><clipPath id="61654ae1d4"><path d="M 116 45 L 177 45 L 177 105 L 116 105 Z M 116 45 " clip-rule="nonzero"/></clipPath><clipPath id="9bd3669cd4"><path d="M 135.980469 34.152344 L 186.90625 64.128906 L 156.929688 115.050781 L 106.003906 85.074219 Z M 135.980469 34.152344 " clip-rule="nonzero"/></clipPath><clipPath id="2d358b68a1"><path d="M 135.980469 34.152344 L 186.996094 64.179688 L 156.964844 115.195312 L 105.949219 85.167969 Z M 135.980469 34.152344 " clip-rule="nonzero"/></clipPath><clipPath id="3ff0e23abe"><path d="M 161.488281 49.167969 C 147.398438 40.875 129.257812 45.570312 120.964844 59.660156 C 112.671875 73.746094 117.371094 91.890625 131.457031 100.179688 C 145.546875 108.472656 163.6875 103.777344 171.980469 89.6875 C 180.273438 75.601562 175.574219 57.457031 161.488281 49.167969 Z M 161.488281 49.167969 " clip-rule="nonzero"/></clipPath><clipPath id="51237977a5"><path d="M 2 0.714844 L 24 0.714844 L 24 23 L 2 23 Z M 2 0.714844 " clip-rule="nonzero"/></clipPath><clipPath id="09d8a1c5ce"><rect x="0" width="108" y="0" height="27"/></clipPath><clipPath id="75c5057aa1"><path d="M 107 74 L 187 74 L 187 76 L 107 76 Z M 107 74 " clip-rule="nonzero"/></clipPath></defs><g clip-path="url(#61654ae1d4)"><g clip-path="url(#9bd3669cd4)"><g clip-path="url(#2d358b68a1)"><g clip-path="url(#3ff0e23abe)"><path stroke-linecap="butt" transform="matrix(0.644619, 0.379446, -0.379446, 0.644619, 135.979721, 34.151264)" fill="none" stroke-linejoin="miter" d="M 39.572543 0.00166965 C 17.715452 0.00261384 -0.000283922 17.714595 0.000660265 39.571686 C -0.00104466 61.424277 17.718086 79.141864 39.568028 79.139069 C 61.425119 79.138124 79.140855 61.426143 79.13991 39.569052 C 79.141615 17.716462 61.422485 -0.00112585 39.572543 0.00166965 Z M 39.572543 0.00166965 " stroke="#1b17ff" stroke-width="4" stroke-opacity="1" stroke-miterlimit="4"/></g></g></g></g><g transform="matrix(1, 0, 0, 1, 3, 61)"><g clip-path="url(#09d8a1c5ce)"><g clip-path="url(#51237977a5)"><g fill="#000000" fill-opacity="1"><g transform="translate(0.872718, 21.602951)"><g><path d="M 12.015625 0.40625 C 10.816406 0.40625 9.675781 0.226562 8.59375 -0.125 C 7.519531 -0.476562 6.53125 -0.976562 5.625 -1.625 C 4.726562 -2.269531 3.945312 -3.03125 3.28125 -3.90625 C 2.625 -4.78125 2.113281 -5.742188 1.75 -6.796875 C 1.382812 -7.847656 1.203125 -8.960938 1.203125 -10.140625 C 1.203125 -11.316406 1.382812 -12.429688 1.75 -13.484375 C 2.113281 -14.546875 2.625 -15.515625 3.28125 -16.390625 C 3.945312 -17.273438 4.726562 -18.035156 5.625 -18.671875 C 6.53125 -19.316406 7.519531 -19.8125 8.59375 -20.15625 C 9.675781 -20.507812 10.816406 -20.6875 12.015625 -20.6875 C 13.210938 -20.6875 14.351562 -20.507812 15.4375 -20.15625 C 16.519531 -19.8125 17.507812 -19.316406 18.40625 -18.671875 C 19.3125 -18.035156 20.097656 -17.273438 20.765625 -16.390625 C 21.429688 -15.515625 21.941406 -14.546875 22.296875 -13.484375 C 22.660156 -12.429688 22.84375 -11.316406 22.84375 -10.140625 C 22.84375 -8.960938 22.660156 -7.847656 22.296875 -6.796875 C 21.941406 -5.742188 21.429688 -4.78125 20.765625 -3.90625 C 20.097656 -3.03125 19.3125 -2.269531 18.40625 -1.625 C 17.507812 -0.976562 16.519531 -0.476562 15.4375 -0.125 C 14.351562 0.226562 13.210938 0.40625 12.015625 0.40625 Z M 12.015625 -2.046875 C 13.140625 -2.046875 14.195312 -2.25 15.1875 -2.65625 C 16.1875 -3.0625 17.0625 -3.628906 17.8125 -4.359375 C 18.570312 -5.097656 19.160156 -5.957031 19.578125 -6.9375 C 20.003906 -7.914062 20.21875 -8.984375 20.21875 -10.140625 C 20.21875 -11.285156 20.003906 -12.351562 19.578125 -13.34375 C 19.160156 -14.332031 18.570312 -15.191406 17.8125 -15.921875 C 17.0625 -16.660156 16.1875 -17.234375 15.1875 -17.640625 C 14.195312 -18.054688 13.140625 -18.265625 12.015625 -18.265625 C 10.878906 -18.265625 9.816406 -18.054688 8.828125 -17.640625 C 7.847656 -17.234375 6.984375 -16.660156 6.234375 -15.921875 C 5.484375 -15.191406 4.894531 -14.332031 4.46875 -13.34375 C 4.050781 -12.351562 3.84375 -11.285156 3.84375 -10.140625 C 3.84375 -8.984375 4.050781 -7.914062 4.46875 -6.9375 C 4.894531 -5.957031 5.484375 -5.097656 6.234375 -4.359375 C 6.984375 -3.628906 7.847656 -3.0625 8.828125 -2.65625 C 9.816406 -2.25 10.878906 -2.046875 12.015625 -2.046875 Z M 12.015625 -2.046875 "/></g></g></g></g><g fill="#000000" fill-opacity="1"><g transform="translate(28.613402, 21.602951)"><g><path d="M 5.390625 0 L 2.75 0 L 2.75 -20.25 L 11.359375 -20.25 C 12.335938 -20.25 13.234375 -20.09375 14.046875 -19.78125 C 14.867188 -19.476562 15.582031 -19.046875 16.1875 -18.484375 C 16.789062 -17.929688 17.253906 -17.265625 17.578125 -16.484375 C 17.910156 -15.703125 18.078125 -14.835938 18.078125 -13.890625 C 18.078125 -12.898438 17.890625 -12.003906 17.515625 -11.203125 C 17.148438 -10.398438 16.632812 -9.722656 15.96875 -9.171875 C 15.300781 -8.628906 14.523438 -8.242188 13.640625 -8.015625 L 18.515625 0 L 15.484375 0 L 10.984375 -7.625 C 10.878906 -7.613281 10.769531 -7.609375 10.65625 -7.609375 C 10.550781 -7.609375 10.441406 -7.609375 10.328125 -7.609375 L 5.390625 -7.609375 Z M 5.390625 -17.875 L 5.390625 -9.859375 L 11.296875 -9.859375 C 12.085938 -9.867188 12.789062 -10.035156 13.40625 -10.359375 C 14.03125 -10.691406 14.523438 -11.160156 14.890625 -11.765625 C 15.253906 -12.378906 15.4375 -13.082031 15.4375 -13.875 C 15.4375 -14.644531 15.25 -15.328125 14.875 -15.921875 C 14.507812 -16.523438 14.007812 -17 13.375 -17.34375 C 12.75 -17.695312 12.039062 -17.875 11.25 -17.875 Z M 5.390625 -17.875 "/></g></g></g><g fill="#000000" fill-opacity="1"><g transform="translate(51.740206, 21.602951)"><g><path d="M 12.25 0 L 2.75 0 L 2.75 -20.25 L 11.40625 -20.25 C 12.519531 -20.25 13.507812 -20.023438 14.375 -19.578125 C 15.25 -19.128906 15.929688 -18.503906 16.421875 -17.703125 C 16.921875 -16.898438 17.171875 -15.972656 17.171875 -14.921875 C 17.171875 -14.296875 17.050781 -13.703125 16.8125 -13.140625 C 16.582031 -12.585938 16.265625 -12.097656 15.859375 -11.671875 C 15.453125 -11.242188 15 -10.921875 14.5 -10.703125 C 15.207031 -10.492188 15.851562 -10.144531 16.4375 -9.65625 C 17.03125 -9.175781 17.5 -8.597656 17.84375 -7.921875 C 18.1875 -7.242188 18.359375 -6.507812 18.359375 -5.71875 C 18.359375 -4.800781 18.1875 -3.988281 17.84375 -3.28125 C 17.507812 -2.570312 17.054688 -1.972656 16.484375 -1.484375 C 15.910156 -1.003906 15.257812 -0.632812 14.53125 -0.375 C 13.800781 -0.125 13.039062 0 12.25 0 Z M 5.421875 -17.953125 L 5.421875 -11.46875 L 11.28125 -11.46875 C 11.882812 -11.46875 12.429688 -11.609375 12.921875 -11.890625 C 13.410156 -12.179688 13.796875 -12.570312 14.078125 -13.0625 C 14.367188 -13.5625 14.515625 -14.113281 14.515625 -14.71875 C 14.515625 -15.320312 14.367188 -15.867188 14.078125 -16.359375 C 13.796875 -16.847656 13.410156 -17.234375 12.921875 -17.515625 C 12.429688 -17.804688 11.890625 -17.953125 11.296875 -17.953125 Z M 5.421875 -9.421875 L 5.421875 -2.328125 L 12.046875 -2.328125 C 12.710938 -2.328125 13.316406 -2.484375 13.859375 -2.796875 C 14.410156 -3.109375 14.84375 -3.53125 15.15625 -4.0625 C 15.476562 -4.601562 15.640625 -5.21875 15.640625 -5.90625 C 15.640625 -6.550781 15.476562 -7.140625 15.15625 -7.671875 C 14.84375 -8.203125 14.414062 -8.625 13.875 -8.9375 C 13.34375 -9.257812 12.742188 -9.421875 12.078125 -9.421875 Z M 5.421875 -9.421875 "/></g></g></g><g fill="#000000" fill-opacity="1"><g transform="translate(74.971195, 21.602951)"><g><path d="M 5.390625 0 L 2.75 0 L 2.75 -20.25 L 5.390625 -20.25 Z M 5.390625 0 "/></g></g></g><g fill="#000000" fill-opacity="1"><g transform="translate(86.801439, 21.602951)"><g><path d="M 9.765625 0 L 7.125 0 L 7.125 -17.875 L 0.734375 -17.875 L 0.734375 -20.25 L 16.1875 -20.25 L 16.1875 -17.875 L 9.765625 -17.875 Z M 9.765625 0 "/></g></g></g></g></g><g clip-path="url(#75c5057aa1)"><path stroke-linecap="butt" transform="matrix(0.748005, 0, 0, 0.748005, 108.228359, 74.303228)" fill="none" stroke-linejoin="miter" d="M -0.00240108 0.498063 L 105.308937 0.498063 " stroke="#000000" stroke-width="1" stroke-opacity="1" stroke-miterlimit="4"/></g></svg>